<?xml version="1.0" standalone="no"?>
<!DOCTYPE svg PUBLIC "-//W3C//DTD SVG 20010904//EN"
 "http://www.w3.org/TR/2001/REC-SVG-20010904/DTD/svg10.dtd">
<svg version="1.0" xmlns="http://www.w3.org/2000/svg"
 width="2000.000000pt" height="2000.000000pt" viewBox="0 0 2000.000000 2000.000000"
 preserveAspectRatio="xMidYMid meet">
<metadata>
Created by potrace 1.16, written by Peter Selinger 2001-2019
</metadata>
<g transform="translate(0.000000,2000.000000) scale(0.100000,-0.100000)"
fill="#000000" stroke="none">
<path d="M10308 14983 c7 -3 16 -2 19 1 4 3 -2 6 -13 5 -11 0 -14 -3 -6 -6z"/>
<path d="M8688 14893 c7 -3 16 -2 19 1 4 3 -2 6 -13 5 -11 0 -14 -3 -6 -6z"/>
<path d="M11927 14539 c7 -7 15 -10 18 -7 3 3 -2 9 -12 12 -14 6 -15 5 -6 -5z"/>
<path d="M7244 14344 c-18 -14 -18 -15 4 -4 12 6 22 13 22 15 0 8 -5 6 -26
-11z"/>
<path d="M14610 13834 c-162 -43 -309 -203 -339 -368 -7 -38 -11 -240 -11
-551 0 -270 -4 -495 -9 -500 -15 -17 -181 -559 -181 -592 0 -69 54 -123 119
-119 32 3 157 53 330 133 30 14 91 42 135 62 l81 36 1115 5 c1112 5 1115 5
1172 27 161 61 272 181 313 340 21 82 22 1101 1 1180 -44 166 -165 294 -323
343 -64 20 -91 20 -1207 19 -971 0 -1149 -3 -1196 -15z m2369 -239 c60 -30
115 -92 130 -148 9 -30 11 -191 9 -573 l-3 -531 -36 -54 c-25 -38 -52 -63 -90
-84 l-54 -30 -1120 -5 -1120 -5 -134 -58 c-74 -32 -136 -55 -139 -52 -3 2 -11
0 -19 -7 -7 -6 -15 -9 -18 -7 -5 6 28 127 67 239 l32 95 6 535 c5 524 5 536
27 575 28 52 68 89 123 114 44 20 60 21 1168 21 l1123 0 48 -25z"/>
<path d="M15140 13029 c-32 -13 -78 -57 -96 -91 -23 -43 -18 -125 10 -172 57
-98 197 -116 279 -38 82 78 73 208 -19 278 -28 21 -49 29 -92 31 -32 1 -68 -2
-82 -8z"/>
<path d="M15765 13026 c-16 -7 -42 -26 -57 -42 -109 -117 -27 -304 132 -304
50 0 88 15 123 48 41 39 57 74 57 129 0 99 -70 174 -168 180 -34 2 -69 -2 -87
-11z"/>
<path d="M16395 13026 c-95 -43 -133 -160 -82 -256 45 -86 165 -117 251 -66
98 57 116 196 38 280 -51 54 -140 72 -207 42z"/>
<path d="M6374 13718 l-19 -23 23 19 c12 11 22 21 22 23 0 8 -8 2 -26 -19z"/>
<path d="M7340 13666 c0 -2 8 -10 18 -17 15 -13 16 -12 3 4 -13 16 -21 21 -21
13z"/>
<path d="M11430 13605 c13 -14 26 -25 28 -25 3 0 -5 11 -18 25 -13 14 -26 25
-28 25 -3 0 5 -11 18 -25z"/>
<path d="M9484 13534 c-306 -41 -615 -164 -850 -337 -118 -86 -321 -299 -399
-417 -142 -214 -228 -425 -266 -650 -19 -112 -20 -153 -17 -533 4 -385 6 -417
26 -490 60 -216 178 -329 404 -390 l83 -22 1315 0 1315 0 83 22 c223 60 352
187 408 403 14 54 18 131 21 455 6 515 -8 648 -97 900 -183 517 -635 900
-1210 1024 -240 51 -587 66 -816 35z m-534 -1288 c110 -72 131 -242 43 -347
-103 -121 -318 -90 -384 55 -23 50 -25 140 -4 190 23 55 87 113 140 129 65 18
154 7 205 -27z m1912 6 c117 -74 144 -240 56 -347 -134 -161 -407 -68 -408
139 0 27 5 67 12 88 16 55 87 124 145 141 57 17 150 7 195 -21z m-1472 -792
c10 -5 29 -29 43 -53 141 -240 543 -243 689 -5 46 74 93 89 142 43 33 -31 33
-65 0 -124 -167 -290 -619 -347 -878 -110 -64 59 -116 140 -116 182 0 56 69
94 120 67z"/>
<path d="M13590 13306 c0 -2 8 -10 18 -17 15 -13 16 -12 3 4 -13 16 -21 21
-21 13z"/>
<path d="M5879 13213 c-13 -16 -12 -17 4 -4 16 13 21 21 13 21 -2 0 -10 -8
-17 -17z"/>
<path d="M7406 13213 c-6 -14 -5 -15 5 -6 7 7 10 15 7 18 -3 3 -9 -2 -12 -12z"/>
<path d="M12533 12880 c0 -36 2 -50 4 -32 2 17 2 47 0 65 -2 17 -4 3 -4 -33z"/>
<path d="M4871 11354 c0 -11 3 -14 6 -6 3 7 2 16 -1 19 -3 4 -6 -2 -5 -13z"/>
<path d="M14841 10624 c0 -11 3 -14 6 -6 3 7 2 16 -1 19 -3 4 -6 -2 -5 -13z"/>
<path d="M4702 10550 c0 -14 2 -19 5 -12 2 6 2 18 0 25 -3 6 -5 1 -5 -13z"/>
<path d="M14891 9744 c0 -11 3 -14 6 -6 3 7 2 16 -1 19 -3 4 -6 -2 -5 -13z"/>
<path d="M4671 9534 c0 -11 3 -14 6 -6 3 7 2 16 -1 19 -3 4 -6 -2 -5 -13z"/>
<path d="M14842 9180 c0 -14 2 -19 5 -12 2 6 2 18 0 25 -3 6 -5 1 -5 -13z"/>
<path d="M4936 8227 c3 -10 9 -15 12 -12 3 3 0 11 -7 18 -10 9 -11 8 -5 -6z"/>
<path d="M14585 8149 c-4 -6 -5 -12 -2 -15 2 -3 7 2 10 11 7 17 1 20 -8 4z"/>
<path d="M13051 7374 c0 -11 3 -14 6 -6 3 7 2 16 -1 19 -3 4 -6 -2 -5 -13z"/>
<path d="M13949 6933 c-13 -16 -12 -17 4 -4 9 7 17 15 17 17 0 8 -8 3 -21 -13z"/>
<path d="M13709 6623 c-13 -16 -12 -17 4 -4 9 7 17 15 17 17 0 8 -8 3 -21 -13z"/>
<path d="M13436 6323 c-6 -14 -5 -15 5 -6 7 7 10 15 7 18 -3 3 -9 -2 -12 -12z"/>
<path d="M13054 5968 l-19 -23 23 19 c21 18 27 26 19 26 -2 0 -12 -10 -23 -22z"/>
</g>
</svg>
